# xmcd
#
# Track frame offsets: 
#        162
#        21080
#        43267
#        58467
#        78282
#        102792
#        128492
#        147715
#        167207
#        185362
#        205250
#        234820
#
# Disc length: 3175 seconds
#
# Revision: 19
# Processed by: cddbd v1.5.2PL0 Copyright (c) Steve Scherf et al.
# Submitted via: ExactAudioCopy v1.3
#
DISCID=a40c650c
DTITLE=Bush - Sixteen Stone
DYEAR=1994
DGENRE=Grunge
TTITLE0=Everything Zen
TTITLE1=Swim
TTITLE2=Bomb
TTITLE3=Little Things
TTITLE4=Comedown
TTITLE5=Body
TTITLE6=Machinehead
TTITLE7=Testosterone
TTITLE8=Monkey
TTITLE9=Glycerine
TTITLE10=Alien
TTITLE11=X-Girlfriend
EXTD=
EXTT0=
EXTT1=
EXTT2=
EXTT3=
EXTT4=
EXTT5=
EXTT6=
EXTT7=
EXTT8=
EXTT9=
EXTT10=
EXTT11=
PLAYORDER=
